<svg width="100" height="100" viewBox="0 0 100 100" xmlns="http://www.w3.org/2000/svg">
    <path d="M 75 45 C 75 10, 85 -10, 85 50" stroke-width="4" fill="none"/>
    <path d="M 75 55 C 75 90, 85 110, 85 50" stroke-width="4" fill="none"/>
    <path d="M 70 65 L 60 65 C 40 65, 20 60, 10 50 C 20 40, 40 35, 60 35 L 70 35" stroke-width="4" fill="none"/>
    <path d="M 70 45 C 75 45, 90 45, 90 50 C 90 55, 75 55, 70 55" stroke-width="4" />
    <circle cx="70" cy="65" r="2" stroke="none"/>
    <circle cx="70" cy="35" r="2" stroke="none"/>
    <circle cx="60" cy="65" r="2" stroke="none"/>
    <circle cx="60" cy="35" r="2" stroke="none"/>
    <line x1="70" y1="65" x2="70" y2="35" stroke-width="4"/>
</svg>
