<svg width="100" height="100" viewBox="0 0 512 512" xmlns="http://www.w3.org/2000/svg">
    <path d="m 280.66756,510.80708 c -5.59216,0.3811 -14.44256,0.37709 -19.66756,-0.009 -5.225,-0.38602 -13.1,-1.63068 -17.5,-2.7659 -4.4,-1.13523 -11.15,-3.56707 -15,-5.4041 -3.85,-1.83703 -9.7,-5.39081 -13,-7.8973 -3.3,-2.50648 -7.63495,-6.73381 -9.63323,-9.39405 -1.99828,-2.66024 -4.74916,-7.0868 -6.11308,-9.8368 -1.36391,-2.75 -3.08228,-7.475 -3.81859,-10.5 -0.73631,-3.025 -1.30956,-8.875 -1.2739,-13 0.0357,-4.125 0.84088,-10.425 1.78936,-14 0.94848,-3.575 3.71451,-10.325 6.14673,-15 2.43222,-4.675 7.56137,-12.325 11.39811,-17 3.83673,-4.675 10.30444,-12.7844 14.37267,-18.02088 4.06824,-5.23648 9.51998,-13.01806 12.11499,-17.29238 2.595,-4.27433 6.23647,-11.46493 8.09216,-15.97912 1.85568,-4.51419 4.03457,-11.35762 4.84196,-15.20762 0.8074,-3.85 1.72664,-8.6204 2.04275,-10.60089 l 0.57475,-3.60088 8.40277,-1.17549 c 4.62152,-0.64652 10.9251,-2.0433 14.00796,-3.10396 3.08285,-1.06065 8.4063,-3.40491 11.82989,-5.20944 3.80706,-2.00667 9.33787,-6.39364 14.24019,-11.29516 l 8.01549,-8.01418 4.23451,-8.32778 C 319.09447,283.59195 321,279.17412 321,278.35484 v -1.48962 l 2.25,0.66984 c 1.2375,0.36841 7.65,3.34248 14.25,6.60904 6.6,3.26656 16.21967,8.94763 21.37705,12.6246 5.15738,3.67697 13.14897,10.45732 17.75909,15.06744 4.61012,4.61012 10.85278,12.09533 13.87257,16.6338 3.01979,4.53847 6.83823,11.22404 8.48541,14.85683 1.64719,3.63278 4.12827,10.51613 5.51351,15.29633 1.38525,4.7802 2.99592,12.97159 3.57927,18.20309 l 1.06063,9.51183 -1.04975,9.58099 c -0.57736,5.26954 -1.95227,13.01323 -3.05536,17.20818 -1.10309,4.19496 -3.52278,11.22452 -5.37709,15.62125 -1.8543,4.39674 -5.83356,11.7645 -8.84279,16.37281 -3.00922,4.60831 -8.05597,11.41913 -11.21499,15.13516 -3.15902,3.71602 -9.30143,9.83586 -13.64981,13.59963 -4.34839,3.76378 -11.10594,8.99006 -15.01679,11.61396 -3.91085,2.62389 -11.23496,6.92716 -16.27579,9.56282 -5.04084,2.63566 -13.21516,6.21273 -18.16516,7.94904 -4.95,1.73632 -12.7496,4.0514 -17.33244,5.14462 -4.58284,1.09322 -12.90784,2.29949 -18.5,2.6806 z M 129.1897,408.40556 c -5.32934,0.22423 -11.2647,0.20922 -13.1897,-0.0334 -1.925,-0.24258 -7.1,-1.14568 -11.5,-2.0069 -4.4,-0.86121 -12.05,-3.12042 -17,-5.02047 -4.95,-1.90005 -12.375,-5.43602 -16.5,-7.85772 -4.125,-2.42169 -11.211754,-7.37806 -15.748342,-11.01417 -4.536588,-3.6361 -11.215712,-9.88743 -14.842499,-13.89185 -3.626786,-4.00442 -9.197974,-10.92336 -12.380419,-15.37544 -3.182444,-4.45207 -8.098267,-12.59568 -10.92405,-18.0969 -2.825784,-5.50122 -6.910939,-15.31369 -9.0781228,-21.80548 -2.1671837,-6.4918 -4.6347365,-15.79972 -5.4834506,-20.68426 -0.8686212,-4.99911 -1.5373743,-14.6153 -1.5299794,-22 L 1.0262744,257.5 2.8956718,248.44241 c 1.0281686,-4.98168 3.0001811,-11.85714 4.3822501,-15.27879 1.382069,-3.42166 4.0224281,-8.74305 5.8674651,-11.82532 1.845037,-3.08227 5.884948,-8.15114 8.97758,-11.26418 3.092631,-3.11303 8.371092,-7.12479 11.729912,-8.91502 3.358819,-1.79023 8.478484,-3.983 11.377033,-4.87281 3.113881,-0.95591 8.747782,-1.61351 13.770088,-1.60727 4.84894,0.006 11.237184,0.74692 14.872415,1.72487 3.504828,0.94287 9.227616,3.06333 12.717306,4.71213 3.489691,1.64879 9.102202,5.02763 12.472247,7.50851 3.370042,2.48089 10.922262,8.44407 16.782692,13.25151 5.86044,4.80744 12.90534,10.33505 15.65534,12.28357 2.75,1.94852 8.15,5.38563 12,7.63802 3.85,2.25239 10.47281,5.47851 14.71736,7.16914 4.24454,1.69064 10.76954,3.7155 14.5,4.49969 3.73045,0.78419 8.40304,1.68284 10.38353,1.99701 l 3.60088,0.57121 1.19986,8.57697 c 0.65992,4.71733 2.24479,11.45573 3.52193,14.97421 1.27714,3.51848 3.84181,8.98161 5.69926,12.14028 1.85745,3.15867 6.76214,9.12497 10.8993,13.25845 l 7.52213,7.51541 8.30565,4.25 c 4.56811,2.3375 8.97598,4.25 9.79526,4.25 h 1.48962 l -0.68619,2.25 c -0.3774,1.2375 -2.87464,6.7712 -5.54943,12.29712 -2.67479,5.52592 -7.52755,14.07592 -10.78391,19 -3.25636,4.92408 -8.77694,12.1943 -12.26795,16.15604 -3.49102,3.96174 -9.62783,9.9238 -13.63737,13.24902 -4.00954,3.32523 -10.72662,8.05755 -14.92685,10.51626 -4.20023,2.45872 -11.47923,5.86076 -16.17556,7.56009 -4.69634,1.69933 -11.61889,3.73761 -15.38346,4.52952 -3.76456,0.7919 -11.20503,1.62328 -16.53436,1.84751 z m 323.10246,-90.52318 c -1.53569,-0.0647 -5.00841,-0.48865 -7.71716,-0.94213 -2.70875,-0.45349 -7.18008,-1.56212 -9.9363,-2.46363 -2.75622,-0.90152 -7.96497,-3.13792 -11.57501,-4.96979 -3.61003,-1.83188 -9.09412,-5.28281 -12.18688,-7.66875 -3.09275,-2.38595 -10.06775,-7.97892 -15.5,-12.42884 -5.43224,-4.44991 -12.89397,-10.15401 -16.58162,-12.67578 -3.68764,-2.52177 -9.61259,-6.21116 -13.16655,-8.19864 -3.55396,-1.98749 -10.11202,-4.9458 -14.57347,-6.57403 -4.46145,-1.62823 -12.00239,-3.63889 -16.75765,-4.46814 -4.75526,-0.82925 -8.7347,-1.61683 -8.8432,-1.75019 -0.10851,-0.13335 -0.73002,-3.9569 -1.38114,-8.49677 -0.65113,-4.53987 -2.00347,-10.63652 -3.0052,-13.5481 -1.00173,-2.91159 -2.8406,-7.29715 -4.08636,-9.74569 -1.24577,-2.44855 -4.22488,-7.00342 -6.62026,-10.12195 -2.39537,-3.11853 -6.79099,-7.751 -9.76804,-10.29438 -2.97706,-2.54337 -8.85265,-6.40435 -13.05689,-8.57994 C 283.3322,192.78003 279.21127,191 278.3788,191 l -1.51358,0 0.67092,-2.25 c 0.369,-1.2375 3.33272,-7.65 6.58604,-14.25 3.25332,-6.6 8.93391,-16.21967 12.62352,-21.37705 3.68962,-5.15738 10.50399,-13.17264 15.14305,-17.8117 4.63905,-4.63905 12.45342,-11.08218 17.36525,-14.31806 4.91183,-3.23587 12.34337,-7.30415 16.51453,-9.0406 4.17116,-1.73646 11.89212,-4.28357 17.1577,-5.66025 l 9.57377,-2.50305 13.5,-0.0338 13.5,-0.0338 9.18992,2.08171 c 5.05446,1.14494 12.70446,3.48517 17,5.20052 4.29554,1.71535 11.18508,5.0973 15.31008,7.51544 4.125,2.41814 11.21175,7.37161 15.74834,11.00772 4.53659,3.6361 11.21571,9.88743 14.8425,13.89185 3.62679,4.00442 9.19798,10.92336 12.38042,15.37544 3.18244,4.45207 8.09827,12.59568 10.92405,18.0969 2.82578,5.50122 6.91094,15.31369 9.07812,21.80548 2.16719,6.4918 4.63474,15.79972 5.48345,20.68426 0.86862,4.99911 1.53738,14.6153 1.52998,22 l -0.0131,13.11901 -1.8694,9.05759 c -1.02817,4.98168 -3.00018,11.85714 -4.38225,15.27879 -1.38207,3.42166 -4.02243,8.74305 -5.86747,11.82532 -1.84503,3.08227 -5.90051,8.16671 -9.01216,11.29876 -3.14316,3.16377 -8.69855,7.28891 -12.5,9.28185 -3.7689,1.97588 -10.30472,4.29928 -14.55029,5.17245 -4.23931,0.87188 -8.96431,1.53231 -10.5,1.46762 z M 255.20078,293.91495 c -1.48543,-0.0468 -4.95078,-0.64256 -7.70078,-1.32397 -2.75,-0.68142 -6.95535,-2.24915 -9.34521,-3.48386 -2.38987,-1.2347 -6.29984,-4.19954 -8.68882,-6.58852 -2.38898,-2.38898 -5.44352,-6.52047 -6.78786,-9.1811 -1.34435,-2.66062 -2.97909,-7.42643 -3.63275,-10.59068 -0.69521,-3.36536 -0.90414,-8.02893 -0.50341,-11.23632 0.37679,-3.01572 1.95837,-8.1755 3.51461,-11.46618 1.55625,-3.29068 4.90234,-8.05586 7.43578,-10.58929 2.54626,-2.54626 7.6029,-6.02099 11.30695,-7.76971 l 6.70071,-3.16347 8.5,0 h 8.5 l 6.70071,3.16347 c 3.68539,1.73991 8.72036,5.18312 11.18881,7.65157 2.46846,2.46846 5.59881,6.67998 6.95634,9.35893 1.35753,2.67896 3.01861,7.66834 3.69129,11.08751 l 1.22306,6.21667 -1.22306,6.21667 c -0.67268,3.41917 -2.33376,8.40855 -3.69129,11.08751 -1.35753,2.67895 -4.42632,6.82891 -6.81954,9.22214 -2.39323,2.39322 -6.52819,5.44787 -9.18882,6.78811 -2.66062,1.34025 -7.22215,2.94278 -10.13672,3.56119 -2.91457,0.61841 -6.51457,1.08611 -8,1.03933 z M 190.25,234.97684 c -0.4125,-0.0127 -4.575,-1.76832 -9.25,-3.90129 -4.675,-2.13296 -11.425,-5.53537 -15,-7.56091 -3.575,-2.02553 -10.02229,-6.21733 -14.32731,-9.31511 -4.30502,-3.09778 -11.0565,-8.80957 -15.0033,-12.69286 -3.9468,-3.88329 -9.5395,-10.19841 -12.42822,-14.0336 -2.88873,-3.83519 -7.25757,-11.02307 -9.70853,-15.97307 -2.45096,-4.95 -5.60061,-12.99525 -6.99923,-17.87833 -1.39862,-4.88308 -3.01657,-12.98308 -3.59544,-18 -0.57887,-5.01692 -0.7761,-12.27167 -0.43827,-16.12167 0.33782,-3.85 1.30579,-10.6 2.15105,-15 0.84525,-4.4 3.31177,-12.56907 5.48114,-18.15349 2.43681,-6.272883 6.68061,-14.298965 11.10376,-21 L 129.39511,54.5 l 10.06903,-10 c 5.53797,-5.5 13.68012,-12.564546 18.09368,-15.698992 4.41355,-3.134445 11.98765,-7.807195 16.83133,-10.383887 4.84368,-2.576693 12.63393,-6.187409 17.31168,-8.023815 4.67774,-1.8364053 13.0812,-4.4847481 18.67434,-5.8852062 5.59315,-1.400458 14.88434,-2.9036888 20.64709,-3.3405128 5.76276,-0.43682402 14.75274,-0.43965679 19.97774,-0.0063 5.225,0.4333618 13.1,1.7065102 17.5,2.8292187 4.4,1.1227086 11.15,3.544311 15,5.3813387 3.85,1.8370277 9.7,5.3908117 13,7.8972987 3.3,2.506486 7.63495,6.733809 9.63323,9.39405 1.99828,2.660241 4.74916,7.086802 6.11308,9.836802 1.36391,2.75 3.08164,7.475 3.81717,10.5 0.73554,3.025 1.29694,8.875 1.24757,13 -0.0494,4.125 -0.84115,10.367587 -1.75951,13.872415 -0.91835,3.504828 -3.01876,9.227616 -4.66756,12.717306 -1.64879,3.489691 -5.01161,9.080448 -7.47293,12.423905 -2.46131,3.343454 -7.2014,9.320674 -10.53353,13.282694 -3.33214,3.96202 -8.4375,10.35927 -11.34527,14.2161 -2.90776,3.85683 -7.41234,10.5134 -10.01017,14.79238 -2.59783,4.27898 -6.24161,11.47339 -8.0973,15.98758 -1.85568,4.51419 -4.03457,11.35762 -4.84196,15.20762 -0.8074,3.85 -1.72664,8.6204 -2.04275,10.60089 l -0.57475,3.60088 -8.57697,1.19986 c -4.71733,0.65992 -11.45573,2.24479 -14.97421,3.52193 -3.51848,1.27714 -8.97701,3.84181 -12.13007,5.69926 -3.15305,1.85745 -9.12444,6.75218 -13.26975,10.87718 l -7.53693,7.5 -4.23869,8.32778 c -2.33129,4.58027 -4.2387,8.96777 -4.2387,9.75 0,0.78222 -0.3375,1.4118 -0.75,1.39906 z"/>
</svg>
